<svg xmlns="http://www.w3.org/2000/svg" width="1388" height="1488" viewBox="0 0 1388 1488"><defs><filter id="1vzka" width="160%" height="164%" x="-20%" y="-22%" filterUnits="objectBoundingBox"><feGaussianBlur in="SourceGraphic" result="FeGaussianBlur1050Out" stdDeviation="16 16"/></filter><filter id="1vzkb" width="188%" height="188%" x="-34%" y="-34%" filterUnits="objectBoundingBox"><feGaussianBlur in="SourceGraphic" result="FeGaussianBlur1071Out" stdDeviation="16 16"/></filter><filter id="1vzkc" width="172%" height="260%" x="-26%" y="-70%" filterUnits="objectBoundingBox"><feGaussianBlur in="SourceGraphic" result="FeGaussianBlur1083Out" stdDeviation="16 16"/></filter><filter id="1vzkd" width="188%" height="188%" x="-34%" y="-34%" filterUnits="objectBoundingBox"><feGaussianBlur in="SourceGraphic" result="FeGaussianBlur1195Out" stdDeviation="16 16"/></filter></defs><g><g opacity=".08"><path fill="#accaf0" d="M1362.163 262.304C1294.272 91.18 1096.301-24.326 919.98 4.31c-97.03 15.758-171.802 73.488-203.202 156.884l-.057.25a245.325 245.325 0 0 0-6.125 18.472c-21.8 58.038-109.637 237.83-388.858 337.38-42.758 15.235-72.204 30.233-91.13 44.781C-9.073 663.933-71.856 945.514 90.382 1191c136.73 206.895 394.751 327.201 622.37 290.193 47.732-7.76 98.092-14.3 136.822-33.768 0 0 591.197-163.011 534.218-1043.363 4.628-45.957-2.773-94.463-21.629-141.758z"/><path fill="none" stroke="#000" stroke-miterlimit="20" d="M1362.163 262.304C1294.272 91.18 1096.301-24.326 919.98 4.31c-97.03 15.758-171.802 73.488-203.202 156.884l-.057.25a245.325 245.325 0 0 0-6.125 18.472c-21.8 58.038-109.637 237.83-388.858 337.38-42.758 15.235-72.204 30.233-91.13 44.781C-9.073 663.933-71.856 945.514 90.382 1191c136.73 206.895 394.751 327.201 622.37 290.193 47.732-7.76 98.092-14.3 136.822-33.768 0 0 591.197-163.011 534.218-1043.363 4.628-45.957-2.773-94.463-21.629-141.758z"/></g><g opacity=".08"><path fill="#accaf0" d="M28.44 1053.984c-41.705 125.661 13.966 280.813 124.342 346.547 60.74 36.173 128.621 38.934 184.472 7.505l.147-.111a176.518 176.518 0 0 0 11.914-7.345c38.84-21.898 170.344-80.343 370.194-6.11 30.598 11.373 53.754 16.722 70.906 17.456 179.131 54.684 343.889-71.421 367.99-281.664 20.316-177.19-66.218-362.746-208.727-447.58-29.883-17.791-60.65-37.469-90.988-44.647 0 0-401.06-183.49-776.636 327.854-23.794 23.179-42.14 53.323-53.614 88.095z"/><path fill="none" stroke="#000" stroke-miterlimit="20" d="M28.44 1053.984c-41.705 125.661 13.966 280.813 124.342 346.547 60.74 36.173 128.621 38.934 184.472 7.505l.147-.111a176.518 176.518 0 0 0 11.914-7.345c38.84-21.898 170.344-80.343 370.194-6.11 30.598 11.373 53.754 16.722 70.906 17.456 179.131 54.684 343.889-71.421 367.99-281.664 20.316-177.19-66.218-362.746-208.727-447.58-29.883-17.791-60.65-37.469-90.988-44.647 0 0-401.06-183.49-776.636 327.854-23.794 23.179-42.14 53.323-53.614 88.095z"/></g><g opacity=".52"><path fill="none" stroke="#accaf0" stroke-miterlimit="20" d="M223.428 1219.728v0L218 1214.3v0l5.428-5.428v0l5.428 5.428v0z"/></g><g opacity=".52"><path fill="none" stroke="#accaf0" stroke-dasharray="5 5" stroke-miterlimit="20" d="M529.449 1109.652c26.56-48.284 17.134-117.143-21.055-153.803-21.016-20.174-47.539-27.17-72.078-19.012l-.067.034a68.574 68.574 0 0 0-5.286 2.005c-17.067 5.69-73.592 18.476-146.35-29.412-11.139-7.334-19.831-11.541-26.53-13.323-66.17-38.03-141.25-.177-167.694 84.546-22.288 71.403-3.152 155.477 46.158 202.796 10.339 9.922 20.875 20.701 32.25 26.281 0 0 143.227 110.353 332.425-68.365 11.244-7.518 20.902-18.38 28.227-31.747z"/></g><g opacity=".31"><path fill="none" stroke="#3c58a4" stroke-miterlimit="20" d="M470.358 1066.306c0-3.66 2.963-6.628 6.618-6.628 3.655 0 6.618 2.967 6.618 6.628s-2.963 6.629-6.618 6.629c-3.655 0-6.618-2.968-6.618-6.629z"/></g><g opacity=".52"><path fill="none" stroke="#accaf0" stroke-miterlimit="20" d="M362.57 875.824v0L376 887.093v0l-11.269 13.43v0l-13.43-11.27v0z"/></g><g><g filter="url(#1vzka)" opacity=".06"><path fill="#200a82" d="M167 1209c-10.493 0-19-8.507-19-19V963c0-10.493 8.507-19 19-19h311c10.493 0 19 8.507 19 19v227c0 10.493-8.507 19-19 19z"/></g><g><path fill="#fff" d="M167 1185c-10.493 0-19-8.507-19-19V956c0-10.493 8.507-19 19-19h290c10.493 0 19 8.507 19 19v210c0 10.493-8.507 19-19 19z"/></g></g><g opacity=".31"><path fill="none" stroke="#3c58a4" stroke-miterlimit="20" d="M111.957 1030.482a5.218 5.218 0 0 1 5.213-5.222 5.218 5.218 0 0 1 5.214 5.222 5.218 5.218 0 0 1-5.214 5.222 5.218 5.218 0 0 1-5.213-5.222z"/></g><g><g><g filter="url(#1vzkb)" opacity=".06"><path fill="#200a82" d="M430 1230c-10.493 0-19-8.507-19-19v-92c0-10.493 8.507-19 19-19h98c10.493 0 19 8.507 19 19v92c0 10.493-8.507 19-19 19z"/></g><g><path fill="#fff" d="M426 1210c-8.284 0-15-6.716-15-15v-91c0-8.284 6.716-15 15-15h94c8.284 0 15 6.716 15 15v91c0 8.284-6.716 15-15 15z"/></g></g></g><g filter="url(#1vzkc)" opacity=".04"><path fill="#200a82" d="M405 809c-10.493 0-19-8.507-19-19v-16c0-10.493 8.507-19 19-19h173c10.493 0 19 8.507 19 19v16c0 10.493-8.507 19-19 19z"/></g><g><g><path fill="#fff" d="M453.718 1174.381a8.718 8.718 0 0 1-8.718-8.718v-29.24a8.718 8.718 0 0 1 8.718-8.717h40.803a8.718 8.718 0 0 1 8.718 8.718v29.239a8.718 8.718 0 0 1-8.718 8.718z"/><path fill="none" stroke="#4070f4" stroke-miterlimit="20" stroke-width="4.16" d="M453.718 1174.381a8.718 8.718 0 0 1-8.718-8.718v-29.24a8.718 8.718 0 0 1 8.718-8.717h40.803a8.718 8.718 0 0 1 8.718 8.718v29.239a8.718 8.718 0 0 1-8.718 8.718z"/></g><g><path fill="#fff" d="M461.304 1151.043c0-7.078 5.738-12.815 12.816-12.815s12.815 5.737 12.815 12.815c0 7.078-5.737 12.816-12.815 12.816-7.078 0-12.816-5.738-12.816-12.816z"/><path fill="none" stroke="#4070f4" stroke-miterlimit="20" stroke-width="4.16" d="M461.304 1151.043c0-7.078 5.738-12.815 12.816-12.815s12.815 5.737 12.815 12.815c0 7.078-5.737 12.816-12.815 12.816-7.078 0-12.816-5.738-12.816-12.816z"/></g><g><path fill="none" stroke="#4070f4" stroke-miterlimit="20" stroke-width="4.16" d="M468.36 1146.75a7.48 7.48 0 0 1 5.16-3.371"/></g><g><path fill="#fff" d="M453.854 1127.242a2 2 0 0 1-2-2v-1.269a2 2 0 0 1 2-2h10.426a2 2 0 0 1 2 2v1.27a2 2 0 0 1-2 2z"/><path fill="none" stroke="#4070f4" stroke-miterlimit="20" stroke-width="4.16" d="M453.854 1127.242a2 2 0 0 1-2-2v-1.269a2 2 0 0 1 2-2h10.426a2 2 0 0 1 2 2v1.27a2 2 0 0 1-2 2z"/></g></g><g><g><path fill="#fff" d="M239.48 1107.44a.352.352 0 0 1-.353-.352v-87.07a5.495 5.495 0 0 1 5.495-5.495h129.424a5.495 5.495 0 0 1 5.495 5.495v87.07a.352.352 0 0 1-.352.352z"/><path fill="none" stroke="#4070f4" stroke-miterlimit="20" stroke-width="4.16" d="M239.48 1107.44a.352.352 0 0 1-.353-.352v-87.07a5.495 5.495 0 0 1 5.495-5.495h129.424a5.495 5.495 0 0 1 5.495 5.495v87.07a.352.352 0 0 1-.352.352z"/></g><g><path fill="#fff" d="M233.514 1121.987a4.264 4.264 0 0 1-4.264-4.264v-10.283h160.168v10.283a4.264 4.264 0 0 1-4.264 4.264z"/><path fill="none" stroke="#4070f4" stroke-miterlimit="20" stroke-width="4.16" d="M233.514 1121.987a4.264 4.264 0 0 1-4.264-4.264v-10.283 0h160.168v10.283a4.264 4.264 0 0 1-4.264 4.264z"/></g><g><path fill="#fff" d="M261.059 1077.92h36.35"/><path fill="none" stroke="#4070f4" stroke-linecap="round" stroke-miterlimit="20" stroke-width="4.16" d="M261.059 1077.92h36.35"/></g><g><path fill="#fff" d="M261.059 1090.517h23.397"/><path fill="none" stroke="#4070f4" stroke-linecap="round" stroke-miterlimit="20" stroke-width="4.16" d="M261.059 1090.517h23.397"/></g><g><path fill="#fff" d="M344.01 1093.566c-6.044 0-10.943-4.9-10.943-10.943v-4.294c0-6.043 4.9-10.943 10.943-10.943h52.418c6.043 0 10.942 4.9 10.942 10.943v4.294c0 6.043-4.899 10.943-10.942 10.943z"/><path fill="none" stroke="#4070f4" stroke-miterlimit="20" stroke-width="4.16" d="M344.01 1093.566c-6.044 0-10.943-4.9-10.943-10.943v-4.294c0-6.043 4.9-10.943 10.943-10.943h52.418c6.043 0 10.942 4.9 10.942 10.943v4.294c0 6.043-4.899 10.943-10.942 10.943z"/></g><g opacity=".2"><path fill="#4070f4" d="M266.304 1058.314a5.246 5.246 0 0 1-5.245-5.246v-13.688a5.246 5.246 0 0 1 5.245-5.246h87.55a5.246 5.246 0 0 1 5.246 5.246v13.688a5.246 5.246 0 0 1-5.246 5.246z"/></g><g><path fill="#fff" d="M199.71 1037.176a6.766 6.766 0 0 1 5.074-2.28h33.581a6.784 6.784 0 0 1 6.783 6.783v73.85a6.784 6.784 0 0 1-6.783 6.784h-33.58a6.785 6.785 0 0 1-6.785-6.784v-73.85c0-1.728.646-3.305 1.71-4.503"/><path fill="none" stroke="#4070f4" stroke-miterlimit="20" stroke-width="4.16" d="M199.71 1037.176a6.766 6.766 0 0 1 5.074-2.28h33.581a6.784 6.784 0 0 1 6.783 6.783v73.85a6.784 6.784 0 0 1-6.783 6.784h-33.58a6.785 6.785 0 0 1-6.785-6.784v-73.85c0-1.728.646-3.305 1.71-4.503"/></g><g><path fill="#3b325f" d="M218.246 1112.194a3.328 3.328 0 1 1 6.657 0 3.328 3.328 0 0 1-6.657 0z"/></g><g><path fill="#fff" d="M209.7 1083.212l11.483-11.483 5.427 5.427 7.546-7.546"/><path fill="none" stroke="#e9b640" stroke-linecap="round" stroke-linejoin="round" stroke-miterlimit="20" stroke-width="4.16" d="M209.7 1083.212v0l11.483-11.483v0l5.427 5.427v0l7.546-7.546v0"/></g><g><path fill="#fff" d="M350.846 1040.772a6.045 6.045 0 0 1-6.045-6.045v-51.413a6.045 6.045 0 0 1 6.045-6.045h61.659a6.045 6.045 0 0 1 6.044 6.045v51.413a6.045 6.045 0 0 1-6.044 6.045z"/><path fill="none" stroke="#4070f4" stroke-miterlimit="20" stroke-width="4.16" d="M350.846 1040.772a6.045 6.045 0 0 1-6.045-6.045v-51.413a6.045 6.045 0 0 1 6.045-6.045h61.659a6.045 6.045 0 0 1 6.044 6.045v51.413a6.045 6.045 0 0 1-6.044 6.045z"/></g><g><g><path fill="#fff" d="M402.481 995.832c0 11.424-20.683 20.684-20.683 20.684s-20.686-9.26-20.686-20.684"/><path fill="none" stroke="#e9b640" stroke-linecap="round" stroke-linejoin="round" stroke-miterlimit="20" stroke-width="4.16" d="M402.481 995.832c0 11.424-20.683 20.684-20.683 20.684v0s-20.686-9.26-20.686-20.684"/></g><g><path fill="#fff" d="M378.27 1022.174a3.525 3.525 0 1 1 7.051 0 3.525 3.525 0 0 1-7.05 0z"/><path fill="none" stroke="#e9b640" stroke-linecap="round" stroke-linejoin="round" stroke-miterlimit="20" stroke-width="4.16" d="M378.27 1022.174a3.525 3.525 0 1 1 7.051 0 3.525 3.525 0 0 1-7.05 0z"/></g></g></g><g><g><g><g filter="url(#1vzkd)" opacity=".06"><path fill="#200a82" d="M122 1044c-10.493 0-19-8.507-19-19v-92c0-10.493 8.507-19 19-19h98c10.493 0 19 8.507 19 19v92c0 10.493-8.507 19-19 19z"/></g><g><path fill="#fff" d="M100 1009c-8.284 0-15-6.716-15-15v-91c0-8.284 6.716-15 15-15h94c8.284 0 15 6.716 15 15v91c0 8.284-6.716 15-15 15z"/></g></g></g></g><g><g><path fill="#fff" d="M119.186 981.077a7.117 7.117 0 0 1-7.118-7.117v-38.357a3.71 3.71 0 0 1 3.711-3.711h54.74a7.117 7.117 0 0 1 7.117 7.117v34.951a7.117 7.117 0 0 1-7.117 7.117z"/><path fill="none" stroke="#4070f4" stroke-miterlimit="20" stroke-width="4.16" d="M119.186 981.077a7.117 7.117 0 0 1-7.118-7.117v-38.357a3.71 3.71 0 0 1 3.711-3.711h54.74a7.117 7.117 0 0 1 7.117 7.117v34.951a7.117 7.117 0 0 1-7.117 7.117z"/></g><g><path fill="#fff" d="M112.147 936.219l-.074-10.548a2.613 2.613 0 0 1 1.928-3.152l59.097-14.448a2.612 2.612 0 0 1 3.15 1.928l.917 3.803a2.612 2.612 0 0 1-1.928 3.152L115.3 931.4a2.611 2.611 0 0 1-3.152-1.926"/><path fill="none" stroke="#4070f4" stroke-miterlimit="20" stroke-width="4.16" d="M112.147 936.219v0l-.074-10.548a2.613 2.613 0 0 1 1.928-3.152l59.097-14.448a2.612 2.612 0 0 1 3.15 1.928l.917 3.803a2.612 2.612 0 0 1-1.928 3.152L115.3 931.4a2.611 2.611 0 0 1-3.152-1.926"/></g><g><path fill="#fff" d="M139.426 949.255l10.811 8.604-10.81 7.909z"/><path fill="none" stroke="#e9b640" stroke-linecap="round" stroke-linejoin="round" stroke-miterlimit="20" stroke-width="4.1" d="M139.426 949.255v0l10.811 8.604v0l-10.81 7.909v0z"/></g><g><path fill="none" stroke="#4070f4" stroke-miterlimit="20" stroke-width="4.16" d="M112.068 940.982h64.057"/></g><g><g><path fill="none" stroke="#4070f4" stroke-miterlimit="20" stroke-width="4.16" d="M116.2 931.892l8.272 9.09"/></g><g><path fill="none" stroke="#4070f4" stroke-miterlimit="20" stroke-width="4.16" d="M128.342 931.892l8.271 9.09"/></g><g><path fill="none" stroke="#4070f4" stroke-miterlimit="20" stroke-width="4.16" d="M140.482 931.892l8.272 9.09"/></g><g><path fill="none" stroke="#4070f4" stroke-miterlimit="20" stroke-width="4.16" d="M152.624 931.892l8.271 9.09"/></g><g><path fill="none" stroke="#4070f4" stroke-miterlimit="20" stroke-width="4.16" d="M164.765 931.892l8.272 9.09"/></g></g><g><g><path fill="none" stroke="#4070f4" stroke-miterlimit="20" stroke-width="4.16" d="M116.037 921.585l10.132 6.956"/></g><g><path fill="none" stroke="#4070f4" stroke-miterlimit="20" stroke-width="4.16" d="M127.857 918.806l10.132 6.957"/></g><g><path fill="none" stroke="#4070f4" stroke-miterlimit="20" stroke-width="4.16" d="M139.675 916.028l10.133 6.956"/></g><g><path fill="none" stroke="#4070f4" stroke-miterlimit="20" stroke-width="4.16" d="M151.494 913.25l10.132 6.956"/></g><g><path fill="none" stroke="#4070f4" stroke-miterlimit="20" stroke-width="4.16" d="M163.314 910.47l10.132 6.957"/></g></g></g></g></svg>