<svg xmlns="http://www.w3.org/2000/svg" width="1847.817" height="1387.153" viewBox="0 0 1847.817 1387.153">
  <g id="Group_2294" data-name="Group 2294" transform="translate(-1484.775 -2624.307)">
    <g id="Group_2291" data-name="Group 2291">
      <g id="Group_2290" data-name="Group 2290">
        <g id="Group_2289" data-name="Group 2289">
          <g id="Group_363" data-name="Group 363" transform="translate(1141.02 1914.232)">
            <g id="Group_115" data-name="Group 115" transform="translate(1356.78 2761.766) rotate(-134)">
              <g id="Shape" transform="translate(0 1131.578) rotate(-45)" opacity="0.08" style="isolation: isolate">
                <path id="Path_15" data-name="Path 15" d="M31.471,544.567c-73,169.01-14.686,390.671,130.24,495.1,79.752,57.468,173.446,69.519,254.619,32.752l.217-.136q8.823-4,17.393-8.731c56.454-25.625,245.7-90.645,513.529,36.4,41.007,19.462,72.433,29.678,96.1,32.774,241.5,97.457,485.006-57.257,543.871-345.562,49.615-242.98-47.764-510.5-234.884-645.28-39.238-28.265-79.472-59.25-120.625-72.87,0,0-533.306-302.773-1115.519,360.02C80.646,458.259,51.58,497.792,31.471,544.567Z" transform="translate(0)" fill="#accaf0" stroke="rgba(0,0,0,0)" stroke-width="1"/>
              </g>
              <g id="Shape-2" data-name="Shape" transform="translate(1797.725 1090.888) rotate(175)" opacity="0.08" style="isolation: isolate">
                <path id="Path_15-2" data-name="Path 15" d="M22.633,391.639C-29.865,513.187,12.071,672.6,116.3,747.7c57.356,41.33,124.738,50,183.116,23.555l.156-.1q6.345-2.875,12.508-6.279c40.6-18.429,176.7-65.19,369.318,26.178,29.491,14,52.092,21.344,69.115,23.57C924.2,884.718,1099.317,773.452,1141.65,566.11c35.682-174.746-34.351-367.138-168.923-464.07-28.219-20.327-57.154-42.611-86.75-52.406,0,0-383.541-217.747-802.255,258.918C58,329.569,37.095,358,22.633,391.639Z" transform="translate(0 0)" fill="#accaf0" stroke="rgba(0,0,0,0)" stroke-width="1"/>
              </g>
              <path id="Shape-3" data-name="Shape" stroke="#accaf0" d="M.894,278.76C-6.77,347.1,35.684,424.47,95.719,451.572c33.038,14.913,66.2,11.915,90.124-8.149l.06-.068q2.6-2.182,5.039-4.615c16.632-13.974,74.512-53.093,178.744-27.407,15.96,3.936,27.713,5.215,36.1,4.475,92.244,16.834,159.481-59.789,150.178-171.142-7.84-93.847-68.281-185.073-145.79-220.045-16.252-7.334-33.122-15.6-48.538-17.359,0,0-212.618-69.571-343.551,221.992C8.865,242.914,2.984,259.854.894,278.76Z" fill="none" transform="translate(1760.268 845.973) rotate(169)" stroke-miterlimit="10" stroke-width="1" stroke-dasharray="5" opacity="0.52" style="isolation: isolate"/>
            </g>
          </g>
        </g>
      </g>
    </g>
  </g>
</svg>
