<svg xmlns="http://www.w3.org/2000/svg" width="1847.816" height="1387.153" viewBox="0 0 1847.816 1387.153">
  <g id="Group_2293" data-name="Group 2293" transform="translate(1432.787 -1016.307)">
    <g id="Group_362" data-name="Group 362" transform="translate(-2002.98 306.232)">
      <g id="Group_115" data-name="Group 115" transform="translate(0 1404.985) rotate(-46)">
        <g id="Shape" transform="translate(821.583 0) rotate(45)" opacity="0.08" style="isolation: isolate">
          <g id="Group_2288" data-name="Group 2288">
            <path id="Path_15" data-name="Path 15" d="M31.471,617.328c-73-169.01-14.686-390.671,130.24-495.1C241.463,64.759,335.157,52.708,416.33,89.475l.217.136q8.823,4,17.393,8.731c56.454,25.625,245.7,90.645,513.529-36.4,41.007-19.462,72.433-29.678,96.1-32.774,241.5-97.457,485.006,57.257,543.871,345.562,49.615,242.98-47.764,510.5-234.884,645.28-39.238,28.265-79.472,59.25-120.625,72.87,0,0-533.306,302.773-1115.519-360.02C80.645,703.636,51.58,664.1,31.471,617.328Z" fill="#accaf0" stroke="rgba(0,0,0,0)" stroke-width="1"/>
          </g>
        </g>
        <g id="Shape-2" data-name="Shape" transform="matrix(-0.996, -0.087, 0.087, -0.996, 1724.896, 1694.701)" opacity="0.08" style="isolation: isolate">
          <g id="Group_2287" data-name="Group 2287">
            <path id="Path_15-2" data-name="Path 15" d="M22.633,443.968C-29.865,322.42,12.071,163.006,116.3,87.9c57.356-41.33,124.738-50,183.116-23.555l.156.1q6.345,2.875,12.508,6.279c40.6,18.429,176.7,65.19,369.318-26.178,29.491-14,52.092-21.344,69.115-23.57C924.2-49.111,1099.317,62.155,1141.65,269.5c35.682,174.746-34.351,367.138-168.923,464.07-28.219,20.327-57.154,42.611-86.75,52.406,0,0-383.541,217.747-802.255-258.918C58,506.038,37.094,477.607,22.633,443.968Z" transform="translate(0 0)" fill="#accaf0" stroke="rgba(0,0,0,0)" stroke-width="1"/>
          </g>
        </g>
        <path id="Shape-3" data-name="Shape" stroke="#accaf0" d="M.894,182.186C-6.77,113.845,35.684,36.476,95.719,9.375c33.038-14.913,66.2-11.915,90.124,8.15l.06.068q2.6,2.182,5.039,4.615C207.573,36.181,265.453,75.3,369.685,49.614c15.96-3.936,27.713-5.215,36.1-4.475,92.244-16.834,159.481,59.789,150.178,171.142-7.84,93.847-68.281,185.073-145.79,220.045-16.252,7.334-33.122,15.6-48.538,17.359,0,0-212.618,69.571-343.551-221.992C8.865,218.032,2.984,201.093.894,182.186Z" fill="none" transform="translate(1672.314 1559.667) rotate(-169)" stroke-miterlimit="10" stroke-width="1" stroke-dasharray="5" opacity="0.52" style="isolation: isolate"/>
      </g>
    </g>
  </g>
</svg>
